<?xml version="1.0" encoding="UTF-8" standalone="no"?>
<svg
   xmlns:dc="http://purl.org/dc/elements/1.1/"
   xmlns:cc="http://creativecommons.org/ns#"
   xmlns:rdf="http://www.w3.org/1999/02/22-rdf-syntax-ns#"
   xmlns:svg="http://www.w3.org/2000/svg"
   xmlns="http://www.w3.org/2000/svg"
   viewBox="0 0 512 512"
   height="512"
   width="512"
   id="svg2"
   version="1.1">
  <metadata
     id="metadata8">
    <rdf:RDF>
      <cc:Work
         rdf:about="">
        <dc:format>image/svg+xml</dc:format>
        <dc:type
           rdf:resource="http://purl.org/dc/dcmitype/StillImage" />
        <dc:title></dc:title>
      </cc:Work>
    </rdf:RDF>
  </metadata>
  <defs
     id="defs6" />
  <path
     style="fill:#f7f7f7;fill-opacity:0"
     d="M 0,256 V 0 H 256 512 V 256 512 H 256 0 Z"
     id="path907" />
  <path
     style="fill:#155196;fill-opacity:1"
     d="M 40.634077,510.36224 C 27.238217,507.11981 12.748887,495.73987 6.2482968,483.35563 -0.23043322,471.01301 0.02956678,476.94592 0.02956678,341.4487 c 0,-136.43548 -0.32631,-129.43381 6.65101002,-142.71169 6.6334802,-12.62354 19.2041702,-22.54483 33.3269902,-26.303 7.83092,-2.08386 274.703593,-2.20517 282.492433,-0.12841 17.73286,4.72816 32.28952,18.63645 37.78454,36.10157 L 362.5,215.4487 v 126 126 l -2.41345,7.36833 c -6.04651,18.46017 -22.16954,32.54413 -41.43941,36.19859 -2.90505,0.55093 -59.6423,0.89896 -138.53363,0.84977 C 68.329957,511.79569 45.541617,511.5501 40.634077,510.36224 Z m 281.513883,-22.5615 c 6.88115,-3.22612 12.69454,-8.85704 15.92913,-15.42913 L 340.5,467.4487 v -95 -95 l -158.39381,-0.25309 c -117.910773,-0.18841 -158.746753,0.0398 -159.774733,0.89297 -1.1601,0.9628 -1.33699,16.03443 -1.10619,94.25309 l 0.27473,93.10703 2.60112,5.54563 c 1.43061,3.0501 3.98713,7.12422 5.68114,9.0536 3.71425,4.23028 11.59615,8.68237 17.44026,9.85112 2.35262,0.47049 63.902483,0.78663 136.777483,0.70254 L 316.5,490.4487 Z M 57.465697,233.52748 c 3.51763,-1.46976 6.5343,-5.89197 6.5343,-9.57878 0,-6.73508 -7.2475,-12.06351 -13.57011,-9.97686 -9.43188,3.1128 -10.10391,15.60015 -1.05158,19.53994 3.94947,1.71891 4.01076,1.71902 8.08739,0.0157 z m 45.920663,-2.6028 c 6.50671,-6.28309 1.81094,-17.24871 -7.386363,-17.24871 -9.13466,0 -13.78495,10.71265 -7.49861,17.27418 4.50143,4.69848 10.00264,4.68906 14.884973,-0.0255 z m 39.01507,2.62965 c 9.26134,-3.86963 8.72823,-16.42755 -0.83131,-19.58249 C 135.24751,211.88519 128,217.21362 128,223.9487 c 0,3.58223 2.98318,8.08736 6.31471,9.53634 4.01386,1.74574 4.07319,1.74625 8.08672,0.0693 z m 288.40258,254.6782 c -24.85968,-24.78086 -26.83159,-27.39745 -24.78636,-32.88979 1.44312,-3.87539 44.56637,-47.19851 48.8181,-49.04436 6.77993,-2.94343 14.16425,2.24346 14.16425,9.94924 0,3.81695 -0.6585,4.69473 -12.5,16.66241 -6.875,6.94826 -12.5,13.223 -12.5,13.94386 0,1.02467 2.4548,1.23165 11.25,0.94856 9.86831,-0.31763 11.95038,-0.70552 16.95261,-3.15829 6.87823,-3.37263 13.93342,-10.88677 16.38539,-17.45126 1.47365,-3.9453 1.86804,-9.34797 2.34203,-32.08313 l 0.56997,-27.33893 2.80576,-2.41107 c 4.33912,-3.72872 9.96587,-3.33944 14.29424,0.98893 l 3.4,3.4 -0.0148,25.85 c -0.0167,29.25101 -0.754,34.31152 -6.62729,45.48841 -6.50014,12.36977 -21.0627,23.71219 -34.38574,26.78218 -2.4597,0.56679 -9.28313,1.04152 -15.16317,1.05496 -6.59976,0.0151 -10.94833,0.44083 -11.36345,1.11252 -0.37834,0.61217 4.84447,6.6638 11.94098,13.83594 12.18614,12.316 12.61345,12.89231 12.61345,17.01192 0,3.516 -0.59648,4.86055 -3.4,7.66407 -2.67437,2.67437 -4.21146,3.4 -7.2022,3.4 -3.62726,0 -4.89682,-1.09115 -27.59379,-23.71617 z M 387.76578,338.03169 384.5,335.11468 384,272.78169 l -0.5,-62.33299 -3.36869,-9.72709 c -8.30738,-23.98757 -27.5794,-42.21027 -51.84459,-49.02176 -7.64258,-2.14536 -9.31654,-2.19568 -90.43255,-2.71848 -79.58339,-0.51293 -82.72413,-0.60355 -84.75864,-2.44547 -4.02586,-3.64478 -4.25791,-7.00489 -3.87334,-56.087195 0.39848,-50.85716 0.26305,-49.51581 6.22362,-61.64249 5.57963,-11.35165 16.08218,-20.5977703 29.17494,-25.6847103 L 191.5,0.44870475 l 136.25457,-0.27078 c 150.48207,-0.29906 143.07059,-0.58543 155.6424,6.01376995 7.81454,4.1020203 18.25567,14.5409703 22.35473,22.3500803 6.47873,12.34262 6.21874,6.40971 6.21874,141.906925 0,134.11971 0.20677,128.99432 -5.70134,141.32495 -3.62109,7.55748 -15.91209,19.93456 -23.40006,23.56396 -11.04098,5.35153 -13.31036,5.58639 -54.10326,5.59922 l -37.73423,0.0119 z m 84.00433,-20.96479 c 6.47378,-2.92578 14.30713,-11.20789 16.86644,-17.8327 1.7418,-4.50867 1.86582,-10.07847 2.14391,-96.2855 0.16234,-50.325 0.0446,-92.5125 -0.2617,-93.75 l -0.55686,-2.25 H 330.44596 170.93003 l 0.28499,10.25 0.28498,10.25 76.5,0.56468 c 55.4028,0.40896 77.74101,0.90047 81,1.78227 21.27039,5.75522 33.21796,12.26438 46.83388,25.5156 12.67856,12.33897 20.99355,26.13701 26.29683,43.63745 2.22557,7.34421 2.27911,8.63207 2.57774,62 0.16773,29.975 0.5416,55.53675 0.83083,56.80388 l 0.52587,2.30388 30.21742,-0.30388 c 29.36203,-0.29528 30.36662,-0.3713 35.48754,-2.68568 z M 209.6,60.548705 c 3.82671,-3.82671 4.41279,-7.74081 1.88965,-12.62002 -1.88088,-3.63722 -4.31401,-4.97998 -9.02391,-4.97998 -2.86161,0 -4.43964,0.7739 -7.19366,3.52792 -3.17075,3.17075 -3.47293,3.93793 -2.98475,7.57762 1.27161,9.48054 10.76526,13.04187 17.31267,6.49446 z m 43.12727,0.12727 c 1.45202,-1.45201 2.64369,-4.0741 2.97534,-6.54676 0.50015,-3.72883 0.21467,-4.46323 -2.97469,-7.65259 -2.91106,-2.91106 -4.25825,-3.52792 -7.70484,-3.52792 -5.88261,0 -10.02308,4.14047 -10.02308,10.02308 0,3.44659 0.61686,4.79378 3.52792,7.70484 3.18936,3.18936 3.92376,3.47484 7.65259,2.9747 2.47266,-0.33166 5.09475,-1.52333 6.54676,-2.97535 z m 40.40117,1.70631 c 9.26953,-4.79346 5.4721,-19.43358 -5.04079,-19.43358 -10.42682,0 -14.54599,13.70076 -5.73456,19.07366 3.82306,2.33116 6.77287,2.42969 10.77535,0.35992 z M 3.3999968,145.5487 -3.2203389e-6,142.1487 0.01479678,116.2987 c 0.0167,-29.216005 0.75682,-34.316865 6.58978002,-45.417025 3.9802102,-7.57434 13.0321302,-16.91139 20.7726002,-21.4269 7.72479,-4.50636 16.57437,-6.50607 28.79218,-6.50607 6.64115,0 10.96821,-0.41354 11.3851,-1.08807 0.37834,-0.61217 -4.84447,-6.6638 -11.94099,-13.83594 -12.18614,-12.316 -12.61345,-12.89231 -12.61345,-17.01192 0,-3.5463203 0.59384,-4.8579103 3.52793,-7.7919903 3.19352,-3.19352995 3.92051,-3.47526995 7.66974,-2.97238995 3.82676,0.51327 5.91684,2.32933995 27.47554,23.87340025 15.14376,15.13347 23.700783,24.43009 24.379503,26.48664 0.79823,2.41864 0.70297,3.95842 -0.40239,6.50452 -1.84585,4.25173 -45.168963,47.374975 -49.044363,48.818095 -6.48761,2.41585 -13.60596,-2.96309 -13.60596,-10.281265 0,-3.81695 0.65851,-4.69473 12.5,-16.66241 6.875,-6.94826 12.5,-13.223 12.5,-13.94386 0,-1.02751 -2.43044,-1.22209 -11.25,-0.90067 -14.09621,0.51372 -19.58274,2.65412 -26.66401,10.40215 -7.97913,8.73045 -8.41314,10.77262 -8.85141,41.649315 l -0.37964,26.7456 -3.00439,3.0044 c -4.37937,4.37936 -9.8246502,4.23029 -14.4505502,-0.39561 z"
     id="path905" />
</svg>
